<?xml version="1.0" encoding="UTF-8"?>
<svg viewBox="0 0 160 160" xmlns="http://www.w3.org/2000/svg" xmlns:xlink="http://www.w3.org/1999/xlink">
 <defs>
  <linearGradient id="a">
   <stop stop-color="#d1940c" stop-opacity="0" offset="0"/>
   <stop stop-color="#ffe689" offset="1"/>
  </linearGradient>
  <linearGradient id="d">
   <stop stop-color="#fff" offset="0"/>
   <stop stop-color="#fff" stop-opacity="0" offset="1"/>
  </linearGradient>
  <linearGradient id="b">
   <stop stop-opacity="0" offset="0"/>
   <stop stop-opacity=".3299" offset="1"/>
  </linearGradient>
  <linearGradient id="c">
   <stop stop-color="#fff" stop-opacity="0" offset="0"/>
   <stop stop-color="#fff" offset="1"/>
  </linearGradient>
  <linearGradient id="v" x1=".52766" x2=".35319" y1=".46094" y2="-1.3281" xlink:href="#c"/>
  <linearGradient id="u" x2="0" y1=".79692" y2="-.05469" xlink:href="#b"/>
  <linearGradient id="t" x1=".99608" x2="-.04296" y1=".69512" y2=".67073" xlink:href="#b"/>
  <linearGradient id="s" x1=".93162" x2=".18803" y1=".75781" y2="-.05469" xlink:href="#b"/>
  <linearGradient id="w" x1=".78919" x2="-.28108" y1=".75781" y2=".50781" xlink:href="#b"/>
  <linearGradient id="x" x1=".53521" x2=".12676" y1=".125" y2="1.0312" xlink:href="#a"/>
  <linearGradient id="h" x1=".62745" x2=".52941" y1=".20313" y2="1.2031" xlink:href="#a"/>
  <linearGradient id="g" x1=".74359" x2=".68376" y1=".22656" y2="1.5391" xlink:href="#a"/>
  <linearGradient id="r" x1="1.4667" x2=".43137" y1=".74528" y2=".5566" xlink:href="#d"/>
  <linearGradient id="q" x1=".27027" x2=".37838" y1=".72656" y2="-.09375" xlink:href="#a"/>
  <linearGradient id="p" x1=".45902" x2="1.2787" y1=".82031" y2="-1.0859" xlink:href="#a"/>
  <linearGradient id="o" x1=".69106" x2=".36585" y1=".21875" y2="1.2969" xlink:href="#a"/>
  <linearGradient id="m" x1=".31361" x2="1.1775" y1=".54688" y2=".04688" xlink:href="#a"/>
  <linearGradient id="l" x1="2.4315" x2="-.26396" y1=".01563" y2=".47656" xlink:href="#d"/>
  <linearGradient id="k" x1=".45455" x2="1.303" y1=".35938" y2="2.2031" xlink:href="#a"/>
  <linearGradient id="j" x2="0" y1=".60156" y2="-.125" xlink:href="#c"/>
  <linearGradient id="i" x1=".52" x2=".22667" y1=".66406" y2="-.07031" xlink:href="#a"/>
  <linearGradient id="n" x2="0" y1=".58503" y2="1.2313" xlink:href="#c"/>
  <radialGradient id="f" fx=".50588" fy=".7234">
   <stop stop-opacity=".67843" offset="0"/>
   <stop stop-opacity=".32941" offset=".57"/>
   <stop stop-opacity="0" offset="1"/>
  </radialGradient>
  <radialGradient id="e" cx=".53488" cy=".22656" r=".63571" fx=".53876" fy="-.03125">
   <stop stop-color="#578dbb" offset="0"/>
   <stop stop-color="#0b335d" offset="1"/>
  </radialGradient>
 </defs>
 <path transform="matrix(1.1355 0 0 .88087 -9.2903 25.911)" d="m148.28 77.945a68.379 68.379 0 1 0 -136.76 0 68.379 68.379 0 1 0 136.76 0z" fill="url(#f)" fill-rule="evenodd"/>
 <path transform="matrix(.43319 0 0 .43319 152.79 8.1897)" d="m-25.912 168.47c0 81.053-65.782 146.84-146.84 146.84s-146.84-65.782-146.84-146.84 65.782-146.84 146.84-146.84 146.84 65.782 146.84 146.84z" fill="url(#e)" fill-rule="evenodd" stroke="#445632" stroke-width="2.8856"/>
 <path transform="matrix(.42489 0 0 .42489 534.26 -19.773)" d="m-1143.9 159.62c3.8598-4.7851 5.3696-12.099 10.922-14.315s17.474 0 22.394 1.0179 4.411 5.429 7.1255 5.0896 6.2772-4.5807 9.1613-7.1255 6.4469-5.7682 8.1434-8.1434 2.1832-3.3023 2.0359-6.1076-3.1531-8.5769-2.92-10.724 5.3984-0.35989 4.3187-2.1594-10.197-6.718-10.797-8.6374 4.7986-2.6392 7.1979-2.8791 4.7985 2.1594 7.1978 1.4396 4.4387-5.2784 7.1978-5.7583 7.4378 1.3196 9.3572 2.8791 0.8398 4.5586 2.1594 6.4781 5.7582 3.7189 5.7582 5.0385-5.2784 0.95971-5.7582 2.8791 1.1996 5.8782 2.8791 8.6374 6.1181 5.1584 7.1978 7.9176-0.5998 7.1978-0.7198 8.6374-4.3187 5.0385-1.4395 6.4781 16.555-5.0385 16.555-5.0385 11.516-2.8791 15.115-0.71978 2.9991 9.5971 4.3187 10.797 5.0385 4.0788 7.9177 7.1978 6.2381 10.317 9.3572 11.517 6.358-3.1191 9.3571-4.3187 5.3984-1.4396 8.6374-2.8791 8.5175-6.2381 10.797-5.7583 1.1996 5.3984 2.8791 8.6374 5.0385 7.7976 7.1978 10.797 5.2784 3.239 5.7583 7.1978-0.23993 13.316-2.8791 16.555-8.8773 2.0394-12.956 2.8791-11.397 0.35989-11.516 2.1594 7.3178 8.0376 10.797 8.6374 6.2381-5.9982 10.077-5.0385 11.277 6.3581 12.956 10.797-3.1191 12.476-2.8791 15.835 4.4387 1.5595 4.3187 4.3187-4.1987 10.197-5.0385 12.236-6.4781 8.6374-6.4781 12.956-6.1182 16.675-7.9176 17.995-7.7977 4.5586-10.797 7.9176-3.359 9.837-7.1978 12.236-11.277 2.2793-15.835 2.1594-9.7171-0.47986-11.517-2.8791-0.5998-8.5174 0.7198-11.517 5.0385-5.2784 7.1979-6.478 5.5183 0.59981 5.7582-0.71979-4.5586-5.6383-4.3187-7.1978 3.7189-0.11996 5.7583-2.1594 5.8782-6.2381 6.478-10.077-2.5192-9.5971-2.8791-12.956-0.4799-6.598 0.7198-7.1978 4.4386 4.4387 6.478 3.5989 4.7986-5.5183 5.7583-8.6374-0.7198-7.9176 0-10.077 4.4387-1.7994 4.3187-2.8791-4.0788-2.2793-5.0385-3.5989 2.0394-4.1987-0.7198-4.3187-12.236 4.6786-15.835 3.5989-5.2784-7.0779-5.7583-10.077 2.7592-5.8782 2.8792-7.9176-0.83977-4.0788-2.1594-4.3187-4.5586 3.239-5.7583 2.8791-1.9194-3.479-1.4395-5.0385 5.0385-1.5595 4.3187-4.3187-5.6383-10.437-8.6374-12.236-6.9579 1.6795-9.3572 1.4396-4.0788-5.0385-5.0385-2.8791 0.7198 13.316-0.7198 15.835-5.1584 0.23992-7.9176-0.71979-5.9982-4.9185-8.6374-5.0385-5.9982 1.0797-7.1978 4.3187-2.2793 10.797 0 15.115 11.636 7.4378 13.676 10.797-1.6795 5.8782-1.4396 9.3572 1.0797 9.5971 2.8791 11.517 7.3178-1.4396 7.9176 0-5.1584 6.478-4.3187 8.6374 9.9571 1.9194 9.3572 4.3187-8.2775 8.1576-12.956 10.077-12.596 1.1996-15.115 1.4396-10.797 14.396-10.797 17.275 0.5998 20.394 2.8792 20.154 9.837-2.2793 13.676-1.4396 6.838 3.8388 9.3572 6.4781 4.7986 7.7976 5.7583 9.3572 0 5.7583-2.8791 7.1978-16.555 10.797-22.313 10.077-25.912-2.1594-27.352-6.478-2.1593-12.236-1.4396-13.676 2.3993-6.8379 4.3187-8.6374 5.7583-0.71979 7.1979-2.1594 0.7198-4.4387 1.4395-6.478 2.3993-4.7986 2.8792-5.7583 4.3187-8.6374 2.1593-11.517-5.0385-7.1978-8.6374-7.1978-13.676 5.0385-17.275 5.7583-18.714-5.7583-21.594-7.1978-25.912-12.956-30.951-12.956-12.956-15.835-12.236-18.714 17.275-22.073 15.116-28.791-12.836-31.191-12.956-40.308 8.3765-9.6106 12.236-14.396z" fill="#7590ae" fill-opacity=".65341" fill-rule="evenodd"/>
 <path transform="matrix(.49026 0 0 .32684 603.53 -10.088)" d="m-993.5 166.77a79.398 79.398 0 1 0 -158.8 0 79.398 79.398 0 1 0 158.8 0z" fill="url(#j)" fill-rule="evenodd"/>
 <g transform="matrix(.42489 0 0 .42489 469.43 109.9)" fill-rule="evenodd">
  <path transform="translate(-737.06 -236.09)" d="m-214.51 161.63c-5.6167-5.7402-24.43-8.1434-27.484-5.5986s-9.1614 10.179-4.5807 14.76 18.112 22.004 22.903 22.903 19.628 2.3702 26.466-0.50897c11.665-10.396 24.77-12.154 37.154-2.0358 2.9047 2.4934 8.0432 4.0252 7.9944 8.3798-0.03872 3.455-4.925 5.9535-12.066 5.8712l-29.52 17.305c-10.647 4.5963-20.574 5.9535-34.101 4.0717 15.109 15.66 39.93 27.506 62.603 24.667 23.027-2.8841 47.853-16.944 62.603-41.971l-1.8561 23.73c16.447-20.074 21.187-48.291 17.275-79.562 6.1437 4.9512 7.7068 14.992 10.797 21.979 6.6456-19.798 1.5851-43.667-1.4396-65.5l13.676 7.9176c-4.5578-35.663-39.144-53.512-65.079-61.691 4.9803-2.9664 10.978-2.3702 19.013-3.8097-6.2161-7.496-8.3604-14.483-33.408-19.943 38.527-0.50276 86.215 10.701 96.749 63.13 2.334-10.077 2.1232-19.645-2.1594-30.231 17.079 21.361 22.961 53.41 23.753 76.297l6.478-12.956c7.3554 49.613-18.881 147.07-109.25 188.54-54.459 19.51-110.87 5.9379-153.2-26.466s-77.404-89.002-54.161-154.49c-3.7324 2.3752-6.745 6.5498-10.477 8.925 1.3672-17.027 7.0532-32.615 21.376-47.843-2.8841-18.662-0.16965-39.36 14.251-59.04 3.5627 12.724 7.6345 24.939 18.323 33.592 12.894-4.2414 22.734-4.92 38.681-2.0358 11.876-11.706 27.314-21.376 43.771-20.359-13.264 6.2311-22.986 21.973-24.43 35.627 17.644 26.255 41.708 14.954 41.735 23.412 0.02678 7.4407-16.626 13.572-27.484 24.43 3.7324 6.1076 6.2722 16.523 5.0896 28.502z" fill="#f19c14" stroke="#33312b" stroke-width="2.3535"/>
  <path transform="translate(-737.06 -236.09)" d="m-233.85 85.282c17.644 26.255 41.708 14.954 41.735 23.412 0.02678 7.4407-16.626 13.572-27.484 24.43-5.1789-8.8248-19.999-8.049-14.251-47.843z" fill="url(#s)"/>
  <path transform="translate(-737.06 -236.09)" d="m-322.82 96.85s-23.033 23.033-22.673 46.426c10.077-24.113 14.756-27.352 33.83-37.429 23.393-7.1978-11.157-8.9973-11.157-8.9973z" fill="url(#g)"/>
  <path transform="translate(-737.06 -236.09)" d="m-299.43 123.48c-6.0582 8.0376-10.197 25.312-10.437 41.747 5.0385-10.797 16.015-38.688 23.933-38.328 2.5192-6.8379-7.4378-11.457-13.496-3.419z" fill="url(#x)"/>
  <path transform="translate(-737.06 -236.09)" d="m-305.01 106.57s-12.416 10.437-12.596 26.092c11.517-18.534 17.995-22.853 20.874-23.033 11.876 0-8.2775-3.0591-8.2775-3.0591z" fill="url(#o)"/>
  <path transform="translate(-737.06 -236.09)" d="m-243.03 203.16c4.1422 11.526 7.7193 17.686 15.269 23.412 38.087 3.9445 44.025-14.293 63.62-21.122 1.7814-4.7928-2.2055-3.902-4.5807-3.3083-2.4468 0.6117-19.97 10.889-37.154 11.197-16.676 0.30833-33.946-12.118-37.154-10.179z" fill="url(#t)"/>
  <path transform="translate(-737.06 -236.09)" d="m-185.52 189.16c1.5269-0.50897 11.706-5.5986 19.086-0.76344s19.086 8.9069 13.488 11.452-10.943 2.7993-13.742-3.0538-17.305 2.2903-20.613-1.0179 0.25448-6.1076 1.7814-6.6165z" fill="url(#r)"/>
  <path transform="translate(-737.06 -236.09)" d="m-343.7 142.33c2.0905-6.4092 7.78-12.099 13.829-15.989-0.71979 9.3572 0.06175 58.742 9.2231 82.154s14.662 31.36 25.448 39.699c-8.2881-10.735-9.5212-15.444-10.601-21.202 4.6786 8.6374 57.973 43.482 73.876 48.624 17.428 5.6348 63.345 15.421 100.2-5.7583 37.932-21.798 67.769-58.258 73.044-68.078 4.915 9.6148 2.6833 58.937-8.5139 69.117s-52.922 65.857-126.21 54.659-111.96-52.274-127.12-78.38c-15.248-26.264-30.795-60.077-14.374-107.9 3.4648-10.754-0.52395 0.17465-8.8015 3.0538z" fill="url(#w)"/>
  <path transform="translate(-737.06 -236.09)" d="m-304.36 144.88c-3.5217 7.2154-14.622 18.578-1.3677 57.778-9.1402-11.697-13.496-32.39-13.496-32.39s-10.076 25.763-4.986 54.011c-8.1434-26.975-8.9069-42.753-4.3262-63.875s-8.3979 17.559-8.1434 25.448c-3.0538-8.6524-1.0179-46.57 6.362-46.316 12.979 2.2903 26.212-10.943 25.957 5.3441z" fill="url(#h)"/>
  <path transform="translate(-737.06 -236.09)" d="m-241.76 155.57s-17.814-3.0538-26.466 2.5448c-8.2969 5.3686-22.394 15.778-12.724 39.699s60.567 49.369 79.398 49.369c-43.771-27.993-55.986-61.076-40.208-91.613z" fill="url(#u)"/>
  <path transform="translate(-737.06 -236.09)" d="m-322.68 97.037s22.903-22.903 37.154-26.466 33.083-1.5269 33.083 0.50896-11.706 10.688-8.6524 17.814-54.968 30.538-61.585 8.1434z" fill="url(#v)"/>
  <path transform="translate(-737.06 -236.09)" d="m-68.02 201.58s23.393-52.904 15.475-91.412c6.8379 9.3572 20.874 55.423 9.3572 88.173-18.714 31.67-28.431 19.794-24.833 3.239z" fill="url(#q)"/>
  <path transform="translate(-737.06 -236.09)" d="m-60.822 222.45c7.5577-13.016 28.971-26.992 37.429-70.899 7.3778 20.514-12.776 70.119-19.074 81.695s-25.823 2.0659-18.354-10.797z" fill="url(#p)"/>
  <path transform="translate(-737.06 -236.09)" d="m-197.48 284.84c24.939-12.554 77.702 2.7145 141.49-79.398-24.77 105.19-95.516 98.739-119.1 111.97s-46.525-20.426-22.394-32.574z" fill="url(#m)"/>
  <path transform="translate(-737.06 -236.09)" d="m-212.52 102.25c11.457 4.2587 17.159 0.39458 19.434 3.9588 2.2243 3.485-1.0797 10.077-4.8585 9.1772-2.8791-8.9973-15.415-11.457-14.576-13.136z" fill-opacity=".78616"/>
  <path transform="translate(-737.06 -236.09)" d="m-226.55 124.38s29.056-15.115 31.331-13.316-1.9254 4.1388-2.4505 4.8585-21.529 12.776-21.354 15.475-8.4016-5.7583-7.5265-7.0179z" fill="url(#l)"/>
  <path transform="translate(-737.06 -236.09)" d="m-264.97 163.06c-0.95971 8.6374-1.0691 26.885 14.832 55.387-7.511-32.574-0.67655-46.75-1.8762-55.387s-11.996-8.6374-12.956 0z" fill="url(#k)"/>
  <path d="m-863.38-200.42c19.074 0.3599 55.783 12.596 67.3 34.91s-19.074 7.1978-19.074 7.1978c-8.6374 2.8791-5.7583-31.311-48.225-42.107z" fill="url(#i)"/>
 </g>
 <path transform="matrix(.75316 0 0 .68039 887.24 -21.126)" d="m-993.5 166.77a79.398 79.398 0 1 0 -158.8 0 79.398 79.398 0 1 0 158.8 0z" fill="url(#n)" fill-rule="evenodd"/>
</svg>
